<svg width="20" height="19" viewBox="0 0 20 19" fill="none" xmlns="http://www.w3.org/2000/svg">
<g clip-path="url(#clip0_312_43)">
<path d="M6.70386 2.46338H3.39201C2.47747 2.46338 1.73608 3.14186 1.73608 3.97881V16.1023C1.73608 16.9392 2.47747 17.6177 3.39201 17.6177H6.70386C7.6184 17.6177 8.35979 16.9392 8.35979 16.1023V3.97881C8.35979 3.14186 7.6184 2.46338 6.70386 2.46338Z" stroke="white" stroke-linecap="round" stroke-linejoin="round"/>
<path d="M16.6394 2.46338H13.3276C12.413 2.46338 11.6716 3.14186 11.6716 3.97881V7.00967C11.6716 7.84662 12.413 8.52511 13.3276 8.52511H16.6394C17.554 8.52511 18.2953 7.84662 18.2953 7.00967V3.97881C18.2953 3.14186 17.554 2.46338 16.6394 2.46338Z" stroke="white" stroke-linecap="round" stroke-linejoin="round"/>
<path d="M16.6394 11.556H13.3276C12.413 11.556 11.6716 12.2345 11.6716 13.0714V16.1023C11.6716 16.9392 12.413 17.6177 13.3276 17.6177H16.6394C17.554 17.6177 18.2953 16.9392 18.2953 16.1023V13.0714C18.2953 12.2345 17.554 11.556 16.6394 11.556Z" stroke="white" stroke-linecap="round" stroke-linejoin="round"/>
</g>
<defs>
<clipPath id="clip0_312_43">
<rect width="19.8711" height="18.1852" fill="white" transform="translate(0.0800781 0.644867)"/>
</clipPath>
</defs>
</svg>
