<svg width="17" height="17" viewBox="0 0 17 17" fill="none" xmlns="http://www.w3.org/2000/svg">
<path d="M5.66669 1.69998H2.83335C2.05095 1.69998 1.41669 2.33424 1.41669 3.11665V14.45C1.41669 15.2324 2.05095 15.8666 2.83335 15.8666H5.66669C6.44909 15.8666 7.08335 15.2324 7.08335 14.45V3.11665C7.08335 2.33424 6.44909 1.69998 5.66669 1.69998Z" stroke="white" stroke-linecap="round" stroke-linejoin="round"/>
<path d="M14.1667 1.69998H11.3334C10.551 1.69998 9.91669 2.33424 9.91669 3.11665V5.94998C9.91669 6.73238 10.551 7.36665 11.3334 7.36665H14.1667C14.9491 7.36665 15.5834 6.73238 15.5834 5.94998V3.11665C15.5834 2.33424 14.9491 1.69998 14.1667 1.69998Z" stroke="white" stroke-linecap="round" stroke-linejoin="round"/>
<path d="M14.1667 10.2H11.3334C10.551 10.2 9.91669 10.8342 9.91669 11.6166V14.45C9.91669 15.2324 10.551 15.8666 11.3334 15.8666H14.1667C14.9491 15.8666 15.5834 15.2324 15.5834 14.45V11.6166C15.5834 10.8342 14.9491 10.2 14.1667 10.2Z" stroke="white" stroke-linecap="round" stroke-linejoin="round"/>
</svg>
