<svg width="17" height="17" viewBox="0 0 17 17" fill="none" xmlns="http://www.w3.org/2000/svg">
<path d="M5.3125 8.5C5.3125 8.78179 5.20056 9.05204 5.0013 9.2513C4.80204 9.45056 4.53179 9.5625 4.25 9.5625C3.96821 9.5625 3.69796 9.45056 3.4987 9.2513C3.29944 9.05204 3.1875 8.78179 3.1875 8.5C3.1875 8.21821 3.29944 7.94796 3.4987 7.7487C3.69796 7.54944 3.96821 7.4375 4.25 7.4375C4.53179 7.4375 4.80204 7.54944 5.0013 7.7487C5.20056 7.94796 5.3125 8.21821 5.3125 8.5ZM9.5625 8.5C9.5625 8.78179 9.45056 9.05204 9.2513 9.2513C9.05204 9.45056 8.78179 9.5625 8.5 9.5625C8.21821 9.5625 7.94796 9.45056 7.7487 9.2513C7.54944 9.05204 7.4375 8.78179 7.4375 8.5C7.4375 8.21821 7.54944 7.94796 7.7487 7.7487C7.94796 7.54944 8.21821 7.4375 8.5 7.4375C8.78179 7.4375 9.05204 7.54944 9.2513 7.7487C9.45056 7.94796 9.5625 8.21821 9.5625 8.5ZM12.75 9.5625C13.0318 9.5625 13.302 9.45056 13.5013 9.2513C13.7006 9.05204 13.8125 8.78179 13.8125 8.5C13.8125 8.21821 13.7006 7.94796 13.5013 7.7487C13.302 7.54944 13.0318 7.4375 12.75 7.4375C12.4682 7.4375 12.198 7.54944 11.9987 7.7487C11.7994 7.94796 11.6875 8.21821 11.6875 8.5C11.6875 8.78179 11.7994 9.05204 11.9987 9.2513C12.198 9.45056 12.4682 9.5625 12.75 9.5625Z" fill="#474545"/>
<path d="M2.30031 16.7907L2.32156 16.7864C4.26594 16.4008 5.45381 15.8918 6.00631 15.6124C6.81975 15.8293 7.65813 15.9386 8.5 15.9375C13.1941 15.9375 17 12.6076 17 8.5C17 4.39237 13.1941 1.0625 8.5 1.0625C3.80587 1.0625 0 4.39237 0 8.5C0 10.37 0.789438 12.0806 2.09313 13.3875C2.00192 14.227 1.81512 15.0533 1.53637 15.8504L1.53319 15.8621C1.45397 16.0904 1.36751 16.3161 1.27394 16.5389C1.19 16.7365 1.35256 16.9575 1.564 16.9235C1.81014 16.8832 2.05561 16.8389 2.30031 16.7907ZM3.15031 13.4884C3.1652 13.3329 3.14558 13.176 3.09288 13.0289C3.04017 12.8818 2.95566 12.7481 2.84538 12.6374C1.71913 11.5069 1.0625 10.0597 1.0625 8.5C1.0625 5.1085 4.25425 2.125 8.5 2.125C12.7458 2.125 15.9375 5.1085 15.9375 8.5C15.9375 11.8926 12.7458 14.875 8.5 14.875C7.75104 14.8761 7.00518 14.7789 6.2815 14.586C6.0286 14.5182 5.75959 14.5462 5.52606 14.6646C5.11488 14.8729 4.20856 15.2702 2.72744 15.6134C2.93407 14.9198 3.07564 14.2084 3.15031 13.4884Z" fill="#474545"/>
</svg>
