<svg width="20" height="19" viewBox="0 0 20 19" fill="none" xmlns="http://www.w3.org/2000/svg">
<g clip-path="url(#clip0_312_51)">
<path d="M6.2898 9.43247C6.2898 9.73391 6.15895 10.023 5.92604 10.2362C5.69313 10.4493 5.37724 10.569 5.04785 10.569C4.71847 10.569 4.40258 10.4493 4.16967 10.2362C3.93676 10.023 3.80591 9.73391 3.80591 9.43247C3.80591 9.13103 3.93676 8.84194 4.16967 8.62879C4.40258 8.41564 4.71847 8.2959 5.04785 8.2959C5.37724 8.2959 5.69313 8.41564 5.92604 8.62879C6.15895 8.84194 6.2898 9.13103 6.2898 9.43247ZM11.2576 9.43247C11.2576 9.73391 11.1267 10.023 10.8938 10.2362C10.6609 10.4493 10.345 10.569 10.0156 10.569C9.68625 10.569 9.37035 10.4493 9.13744 10.2362C8.90453 10.023 8.77369 9.73391 8.77369 9.43247C8.77369 9.13103 8.90453 8.84194 9.13744 8.62879C9.37035 8.41564 9.68625 8.2959 10.0156 8.2959C10.345 8.2959 10.6609 8.41564 10.8938 8.62879C11.1267 8.84194 11.2576 9.13103 11.2576 9.43247ZM14.9834 10.569C15.3128 10.569 15.6287 10.4493 15.8616 10.2362C16.0945 10.023 16.2254 9.73391 16.2254 9.43247C16.2254 9.13103 16.0945 8.84194 15.8616 8.62879C15.6287 8.41564 15.3128 8.2959 14.9834 8.2959C14.654 8.2959 14.3381 8.41564 14.1052 8.62879C13.8723 8.84194 13.7415 9.13103 13.7415 9.43247C13.7415 9.73391 13.8723 10.023 14.1052 10.2362C14.3381 10.4493 14.654 10.569 14.9834 10.569Z" fill="#474545"/>
<path d="M2.76889 18.3011L2.79373 18.2966C5.06648 17.884 6.45498 17.3396 7.10079 17.0407C8.05161 17.2728 9.03158 17.3897 10.0156 17.3885C15.5025 17.3885 19.9512 13.8265 19.9512 9.43246C19.9512 5.03846 15.5025 1.47644 10.0156 1.47644C4.52872 1.47644 0.0800781 5.03846 0.0800781 9.43246C0.0800781 11.4328 1.00284 13.2627 2.52671 14.6607C2.4201 15.5587 2.20176 16.4426 1.87593 17.2953L1.8722 17.3078C1.77961 17.552 1.67855 17.7934 1.56917 18.0318C1.47106 18.2432 1.66107 18.4796 1.90822 18.4432C2.19593 18.4001 2.48286 18.3528 2.76889 18.3011ZM3.76244 14.7687C3.77984 14.6023 3.75692 14.4344 3.69531 14.2771C3.6337 14.1197 3.53492 13.9767 3.40601 13.8583C2.08954 12.649 1.32202 11.1009 1.32202 9.43246C1.32202 5.80451 5.05282 2.61301 10.0156 2.61301C14.9784 2.61301 18.7092 5.80451 18.7092 9.43246C18.7092 13.0615 14.9784 16.2519 10.0156 16.2519C9.14019 16.2531 8.26836 16.1491 7.42245 15.9428C7.12684 15.8703 6.8124 15.9002 6.53943 16.0269C6.0588 16.2496 4.99942 16.6747 3.26815 17.0418C3.50968 16.2998 3.67516 15.5388 3.76244 14.7687Z" fill="#474545"/>
</g>
<defs>
<clipPath id="clip0_312_51">
<rect width="19.8711" height="18.1852" fill="white" transform="translate(0.0800781 0.339874)"/>
</clipPath>
</defs>
</svg>
