<svg width="20" height="19" viewBox="0 0 20 19" fill="none" xmlns="http://www.w3.org/2000/svg">
<path d="M13.1206 17.4734C12.1381 17.4734 11.1776 17.2068 10.3607 16.7073C9.54372 16.2077 8.90698 15.4977 8.53098 14.6669C8.15498 13.8362 8.05661 12.9221 8.24829 12.0402C8.43997 11.1583 8.91311 10.3482 9.60786 9.71243C10.3026 9.07662 11.1878 8.64363 12.1514 8.46821C13.1151 8.29279 14.114 8.38282 15.0217 8.72692C15.9294 9.07102 16.7053 9.65373 17.2512 10.4014C17.797 11.149 18.0884 12.028 18.0884 12.9272C18.0884 14.1329 17.565 15.2893 16.6334 16.1419C15.7017 16.9945 14.4381 17.4734 13.1206 17.4734ZM13.1206 9.51743C12.3837 9.51743 11.6634 9.7174 11.0506 10.0921C10.4379 10.4667 9.96039 10.9993 9.67839 11.6223C9.39639 12.2454 9.32261 12.9309 9.46637 13.5924C9.61013 14.2538 9.96498 14.8613 10.486 15.3382C11.0071 15.815 11.671 16.1398 12.3937 16.2714C13.1165 16.4029 13.8656 16.3354 14.5464 16.0773C15.2272 15.8192 15.8091 15.3822 16.2185 14.8215C16.6279 14.2608 16.8464 13.6015 16.8464 12.9272C16.8464 12.0228 16.4539 11.1556 15.7552 10.5161C15.0564 9.87666 14.1088 9.51743 13.1206 9.51743Z" fill="#474545"/>
<path d="M14.1078 14.632L12.4995 13.1601V10.654H13.7415V12.6941L14.9834 13.8307L14.1078 14.632Z" fill="#474545"/>
<path d="M17.4673 3.83456C17.4673 3.53312 17.3365 3.24403 17.1035 3.03088C16.8706 2.81773 16.5547 2.69798 16.2254 2.69798H13.7415V1.56141H12.4995V2.69798H7.53174V1.56141H6.2898V2.69798H3.80591C3.47653 2.69798 3.16063 2.81773 2.92772 3.03088C2.69481 3.24403 2.56396 3.53312 2.56396 3.83456V15.2003C2.56396 15.5017 2.69481 15.7908 2.92772 16.004C3.16063 16.2171 3.47653 16.3369 3.80591 16.3369H6.2898V15.2003H3.80591V3.83456H6.2898V4.97113H7.53174V3.83456H12.4995V4.97113H13.7415V3.83456H16.2254V7.24428H17.4673V3.83456Z" fill="#474545"/>
</svg>
