<svg width="17" height="17" viewBox="0 0 17 17" fill="none" xmlns="http://www.w3.org/2000/svg">
<path d="M11.1563 15.9375C10.3157 15.9375 9.49399 15.6882 8.79508 15.2212C8.09617 14.7543 7.55144 14.0905 7.22976 13.3139C6.90809 12.5373 6.82393 11.6828 6.98791 10.8584C7.1519 10.0339 7.55667 9.27667 8.15105 8.6823C8.74542 8.08792 9.5027 7.68315 10.3271 7.51916C11.1515 7.35518 12.0061 7.43934 12.7827 7.76101C13.5592 8.08269 14.223 8.62742 14.69 9.32633C15.157 10.0252 15.4063 10.8469 15.4063 11.6875C15.4063 12.8147 14.9585 13.8957 14.1615 14.6927C13.3644 15.4897 12.2834 15.9375 11.1563 15.9375ZM11.1563 8.5C10.5258 8.5 9.90955 8.68695 9.38537 9.03719C8.86119 9.38744 8.45264 9.88526 8.21139 10.4677C7.97013 11.0501 7.90701 11.691 8.03 12.3094C8.15299 12.9277 8.45657 13.4956 8.90235 13.9414C9.34813 14.3872 9.91609 14.6908 10.5344 14.8138C11.1527 14.9367 11.7936 14.8736 12.3761 14.6324C12.9585 14.3911 13.4563 13.9826 13.8066 13.4584C14.1568 12.9342 14.3438 12.3179 14.3438 11.6875C14.3438 10.8421 14.0079 10.0314 13.4102 9.4336C12.8124 8.83583 12.0016 8.5 11.1563 8.5Z" fill="#474545"/>
<path d="M12.0009 13.2812L10.625 11.9053V9.5625H11.6875V11.4697L12.75 12.5322L12.0009 13.2812Z" fill="#474545"/>
<path d="M14.875 3.1875C14.875 2.90571 14.7631 2.63546 14.5638 2.4362C14.3645 2.23694 14.0943 2.125 13.8125 2.125H11.6875V1.0625H10.625V2.125H6.375V1.0625H5.3125V2.125H3.1875C2.90571 2.125 2.63546 2.23694 2.4362 2.4362C2.23694 2.63546 2.125 2.90571 2.125 3.1875V13.8125C2.125 14.0943 2.23694 14.3645 2.4362 14.5638C2.63546 14.7631 2.90571 14.875 3.1875 14.875H5.3125V13.8125H3.1875V3.1875H5.3125V4.25H6.375V3.1875H10.625V4.25H11.6875V3.1875H13.8125V6.375H14.875V3.1875Z" fill="#474545"/>
</svg>
