<svg width="28" height="33" viewBox="0 0 28 33" fill="none" xmlns="http://www.w3.org/2000/svg">
<path d="M15.2905 7.47543C14.7679 7.40776 14.2369 7.36898 13.6986 7.35933C11.3464 7.37182 8.90813 8.05673 6.60014 9.36913C4.8865 10.3837 3.21721 11.816 1.76751 13.5828C1.05552 14.4848 0.146826 15.7907 0 17.184C0.0173516 18.391 1.09938 19.8808 1.76751 20.7852C3.12693 22.4827 4.75275 23.874 6.60014 24.9989C6.66293 25.0354 6.72594 25.0715 6.78909 25.107L5.07513 28.6902L7.404 30.3378L19.9934 4.0993L17.7517 2.45923L15.2905 7.47543ZM20.6064 9.26503L18.8958 12.8141C19.6827 14.0381 20.1499 15.5474 20.1499 17.184C20.1499 21.2633 17.2613 24.5706 13.6969 24.5706C13.5428 24.5706 13.3935 24.5507 13.2421 24.5385L12.11 26.8846C12.6321 26.9515 13.16 27.0003 13.6986 27.0087C16.053 26.9961 18.4899 26.3033 20.7954 24.9989C22.509 23.9844 24.18 22.552 25.6297 20.7852C26.3417 19.8833 27.2503 18.5774 27.3972 17.184C27.3798 15.9771 26.2978 14.4873 25.6297 13.5828C24.2702 11.8854 22.6428 10.4941 20.7954 9.36908C20.733 9.33289 20.6692 9.30034 20.6064 9.26503ZM13.6969 9.79752C13.8532 9.79752 14.0083 9.80501 14.1618 9.81752L12.8357 12.5659C10.9747 13.0176 9.57831 14.9131 9.57831 17.182C9.57831 17.752 9.66601 18.2977 9.82747 18.8034C9.82765 18.804 9.82728 18.8049 9.82747 18.8055L8.49806 21.5619C7.70923 20.3368 7.24391 18.8226 7.24391 17.184C7.24393 13.1047 10.1326 9.79749 13.6969 9.79752ZM17.5547 15.5926L14.5665 21.7901C16.4175 21.3299 17.8038 19.4431 17.8038 17.182C17.8038 16.6225 17.7106 16.0905 17.5547 15.5926Z" fill="#6A6A6A"/>
</svg>
