<svg width="20" height="19" viewBox="0 0 20 19" fill="none" xmlns="http://www.w3.org/2000/svg">
<g clip-path="url(#clip0_312_58)">
<path d="M8.77379 3.44457C8.77379 2.78141 8.48592 2.1454 7.97352 1.67648C7.46112 1.20755 6.76615 0.944107 6.04151 0.944107C5.31686 0.944107 4.6219 1.20755 4.1095 1.67648C3.59709 2.1454 3.30923 2.78141 3.30923 3.44457C3.30923 4.10773 3.59709 4.74374 4.1095 5.21266C4.6219 5.68159 5.31686 5.94503 6.04151 5.94503C6.76615 5.94503 7.46112 5.68159 7.97352 5.21266C8.48592 4.74374 8.77379 4.10773 8.77379 3.44457ZM4.30279 3.44457C4.30279 3.23561 4.34776 3.0287 4.43514 2.83564C4.52252 2.64259 4.65059 2.46718 4.81205 2.31942C4.9735 2.17166 5.16518 2.05446 5.37613 1.97449C5.58708 1.89452 5.81318 1.85337 6.04151 1.85337C6.26984 1.85337 6.49594 1.89452 6.70689 1.97449C6.91784 2.05446 7.10952 2.17166 7.27097 2.31942C7.43243 2.46718 7.5605 2.64259 7.64788 2.83564C7.73526 3.0287 7.78023 3.23561 7.78023 3.44457C7.78023 3.86658 7.59704 4.27131 7.27097 4.56972C6.9449 4.86813 6.50265 5.03577 6.04151 5.03577C5.58037 5.03577 5.13812 4.86813 4.81205 4.56972C4.48597 4.27131 4.30279 3.86658 4.30279 3.44457ZM2.56406 6.85429H6.72011C6.55716 7.13616 6.43595 7.44167 6.36441 7.76355H2.56406C2.43231 7.76355 2.30595 7.81145 2.21279 7.89671C2.11963 7.98197 2.06729 8.09761 2.06729 8.21818V8.67281C2.06729 9.81848 3.1592 11.0496 5.14333 11.3369C4.82341 11.537 4.55714 11.8034 4.36737 12.1134C2.27097 11.5943 1.07373 10.1158 1.07373 8.67281V8.21818C1.07373 7.85646 1.23075 7.50954 1.51024 7.25377C1.78973 6.99799 2.1688 6.85429 2.56406 6.85429ZM7.9084 6.85429C8.40915 6.29964 9.16723 5.94503 10.0157 5.94503C10.6107 5.94408 11.1897 6.1213 11.6644 6.44964C12.1391 6.77798 12.4834 7.23942 12.6447 7.76355C12.7885 8.23136 12.7804 8.72737 12.6214 9.19103C12.4623 9.6547 12.1593 10.066 11.7492 10.3747C11.339 10.6834 10.8396 10.8762 10.3118 10.9295C9.78396 10.9828 9.2506 10.8944 8.77677 10.675C8.41195 10.5051 8.09351 10.2623 7.84499 9.96463C7.59646 9.66695 7.4242 9.32197 7.34093 8.95518C7.25767 8.5884 7.26552 8.20917 7.36391 7.84554C7.46231 7.4819 7.64872 7.14314 7.90939 6.85429H7.9084ZM8.44492 7.76355C8.34706 7.95245 8.29082 8.15714 8.2794 8.36593C8.26799 8.57472 8.30162 8.78353 8.37838 8.98042C8.45514 9.17732 8.57352 9.35845 8.72678 9.51348C8.88003 9.66851 9.06515 9.79439 9.27156 9.88394C9.47797 9.9735 9.70164 10.025 9.92978 10.0354C10.1579 10.0459 10.3861 10.0151 10.6012 9.94484C10.8164 9.87459 11.0143 9.76625 11.1837 9.626C11.3531 9.48575 11.4907 9.31634 11.5885 9.12744C11.7862 8.74582 11.81 8.30798 11.6549 7.91025C11.4998 7.51251 11.1784 7.18746 10.7614 7.00659C10.3444 6.82573 9.86596 6.80387 9.43136 6.94583C8.99675 7.08779 8.64156 7.38193 8.44393 7.76355H8.44492ZM15.6641 12.1134C15.4748 11.8032 15.2092 11.5377 14.8881 11.3378C16.8713 11.0496 17.9642 9.81757 17.9642 8.67281V8.21818C17.9642 8.09761 17.9118 7.98197 17.8187 7.89671C17.7255 7.81145 17.5992 7.76355 17.4674 7.76355H13.667C13.5969 7.44652 13.4774 7.14033 13.3123 6.85429H17.4674C17.8627 6.85429 18.2417 6.99799 18.5212 7.25377C18.8007 7.50954 18.9577 7.85646 18.9577 8.21818V8.67281C18.9577 10.1158 17.7595 11.5934 15.6641 12.1134ZM14.4738 12.1926C14.2026 11.9747 13.854 11.8548 13.4932 11.8552H6.53829C6.34243 11.8547 6.14839 11.8897 5.96734 11.9581C5.78629 12.0264 5.62179 12.1269 5.48329 12.2536C5.3448 12.3804 5.23504 12.5309 5.16033 12.6966C5.08562 12.8623 5.04743 13.0399 5.04795 13.2191V13.6737C5.04795 15.4659 6.89597 17.3108 10.0157 17.3108C13.1355 17.3108 14.9835 15.4659 14.9835 13.6737V13.2191C14.9835 12.8099 14.7868 12.4426 14.4738 12.1916V12.1926ZM6.04151 13.2191C6.04151 13.0985 6.09385 12.9829 6.18701 12.8976C6.28018 12.8124 6.40653 12.7645 6.53829 12.7645H13.4932C13.6249 12.7645 13.7513 12.8124 13.8445 12.8976C13.9376 12.9829 13.99 13.0985 13.99 13.2191V13.6737C13.99 14.9813 12.5672 16.4015 10.0157 16.4015C7.46428 16.4015 6.04151 14.9813 6.04151 13.6737V13.2191ZM13.99 0.944107C14.7146 0.944107 15.4096 1.20755 15.922 1.67648C16.4344 2.1454 16.7222 2.78141 16.7222 3.44457C16.7222 4.10773 16.4344 4.74374 15.922 5.21266C15.4096 5.68159 14.7146 5.94503 13.99 5.94503C13.2653 5.94503 12.5703 5.68159 12.0579 5.21266C11.5455 4.74374 11.2577 4.10773 11.2577 3.44457C11.2577 2.78141 11.5455 2.1454 12.0579 1.67648C12.5703 1.20755 13.2653 0.944107 13.99 0.944107ZM13.99 1.85337C13.5288 1.85337 13.0866 2.02101 12.7605 2.31942C12.4344 2.61783 12.2512 3.02256 12.2512 3.44457C12.2512 3.86658 12.4344 4.27131 12.7605 4.56972C13.0866 4.86813 13.5288 5.03577 13.99 5.03577C14.4511 5.03577 14.8933 4.86813 15.2194 4.56972C15.5455 4.27131 15.7287 3.86658 15.7287 3.44457C15.7287 3.02256 15.5455 2.61783 15.2194 2.31942C14.8933 2.02101 14.4511 1.85337 13.99 1.85337Z" fill="#474545"/>
</g>
<defs>
<clipPath id="clip0_312_58">
<rect width="19.8711" height="18.1852" fill="white" transform="translate(0.0800781 0.0348511)"/>
</clipPath>
</defs>
</svg>
