<svg width="17" height="17" viewBox="0 0 17 17" fill="none" xmlns="http://www.w3.org/2000/svg">
<g clip-path="url(#clip0_14_152)">
<path d="M7.43748 3.18751C7.43748 2.56756 7.1912 1.97301 6.75284 1.53464C6.31447 1.09628 5.71992 0.850006 5.09998 0.850006C4.48003 0.850006 3.88548 1.09628 3.44711 1.53464C3.00875 1.97301 2.76248 2.56756 2.76248 3.18751C2.76248 3.80745 3.00875 4.402 3.44711 4.84037C3.88548 5.27873 4.48003 5.52501 5.09998 5.52501C5.71992 5.52501 6.31447 5.27873 6.75284 4.84037C7.1912 4.402 7.43748 3.80745 7.43748 3.18751ZM3.61248 3.18751C3.61248 2.99216 3.65095 2.79874 3.7257 2.61826C3.80046 2.43779 3.91003 2.27381 4.04815 2.13568C4.18628 1.99756 4.35026 1.88799 4.53073 1.81324C4.71121 1.73848 4.90463 1.70001 5.09998 1.70001C5.29532 1.70001 5.48875 1.73848 5.66922 1.81324C5.84969 1.88799 6.01367 1.99756 6.1518 2.13568C6.28992 2.27381 6.39949 2.43779 6.47425 2.61826C6.549 2.79874 6.58748 2.99216 6.58748 3.18751C6.58748 3.58202 6.43076 3.96037 6.1518 4.23933C5.87284 4.51829 5.49449 4.67501 5.09998 4.67501C4.70547 4.67501 4.32711 4.51829 4.04815 4.23933C3.76919 3.96037 3.61248 3.58202 3.61248 3.18751ZM2.12498 6.37501H5.68053C5.54113 6.63851 5.43743 6.92411 5.37623 7.22501H2.12498C2.01226 7.22501 1.90416 7.26978 1.82446 7.34949C1.74475 7.42919 1.69998 7.53729 1.69998 7.65001V8.07501C1.69998 9.14601 2.63413 10.2969 4.33158 10.5655C4.05788 10.7525 3.83008 11.0016 3.66773 11.2914C1.87423 10.8061 0.849976 9.42396 0.849976 8.07501V7.65001C0.849976 7.31186 0.984306 6.98755 1.22341 6.74845C1.46252 6.50934 1.78682 6.37501 2.12498 6.37501ZM6.69713 6.37501C7.12553 5.85651 7.77408 5.52501 8.49998 5.52501C9.00901 5.52412 9.50436 5.68978 9.91045 5.99673C10.3165 6.30367 10.6111 6.73504 10.7491 7.22501C10.8721 7.66233 10.8652 8.12601 10.7291 8.55945C10.5931 8.9929 10.3338 9.37738 9.98294 9.66596C9.63208 9.95455 9.2048 10.1348 8.75325 10.1846C8.30169 10.2345 7.84539 10.1518 7.44003 9.94671C7.12792 9.78786 6.85549 9.56091 6.64288 9.28263C6.43026 9.00436 6.28289 8.68186 6.21165 8.33898C6.14041 7.99609 6.14713 7.64159 6.23131 7.30165C6.31549 6.96171 6.47497 6.64503 6.69798 6.37501H6.69713ZM7.15613 7.22501C7.07241 7.40159 7.02429 7.59294 7.01452 7.78813C7.00476 7.98331 7.03353 8.17851 7.0992 8.36257C7.16487 8.54664 7.26615 8.71596 7.39726 8.86089C7.52837 9.00581 7.68674 9.12349 7.86333 9.20721C8.03991 9.29092 8.23126 9.33904 8.42645 9.34881C8.62163 9.35858 8.81683 9.3298 9.00089 9.26413C9.18496 9.19846 9.35428 9.09718 9.49921 8.96607C9.64413 8.83496 9.76181 8.67659 9.84553 8.50001C10.0146 8.14326 10.035 7.73395 9.90233 7.36214C9.76962 6.99033 9.49465 6.68646 9.1379 6.51738C8.78115 6.34831 8.37185 6.32787 8.00003 6.46058C7.62822 6.59328 7.32435 6.86826 7.15528 7.22501H7.15613ZM13.3322 11.2914C13.1703 11.0014 12.943 10.7531 12.6684 10.5664C14.365 10.2969 15.3 9.14516 15.3 8.07501V7.65001C15.3 7.53729 15.2552 7.42919 15.1755 7.34949C15.0958 7.26978 14.9877 7.22501 14.875 7.22501H11.6237C11.5637 6.92864 11.4615 6.6424 11.3203 6.37501H14.875C15.2131 6.37501 15.5374 6.50934 15.7765 6.74845C16.0156 6.98755 16.15 7.31186 16.15 7.65001V8.07501C16.15 9.42396 15.1249 10.8052 13.3322 11.2914ZM12.3139 11.3654C12.0819 11.1617 11.7837 11.0496 11.475 11.05H5.52498C5.35741 11.0496 5.19142 11.0822 5.03652 11.1461C4.88163 11.2101 4.7409 11.304 4.62241 11.4224C4.50393 11.5409 4.41003 11.6817 4.34612 11.8366C4.2822 11.9914 4.24953 12.1574 4.24998 12.325V12.75C4.24998 14.4254 5.83098 16.15 8.49998 16.15C11.169 16.15 12.75 14.4254 12.75 12.75V12.325C12.75 11.9425 12.5817 11.5991 12.3139 11.3645V11.3654ZM5.09998 12.325C5.09998 12.2123 5.14475 12.1042 5.22446 12.0245C5.30416 11.9448 5.41226 11.9 5.52498 11.9H11.475C11.5877 11.9 11.6958 11.9448 11.7755 12.0245C11.8552 12.1042 11.9 12.2123 11.9 12.325V12.75C11.9 13.9723 10.6828 15.3 8.49998 15.3C6.31718 15.3 5.09998 13.9723 5.09998 12.75V12.325ZM11.9 0.850006C12.5199 0.850006 13.1145 1.09628 13.5528 1.53464C13.9912 1.97301 14.2375 2.56756 14.2375 3.18751C14.2375 3.80745 13.9912 4.402 13.5528 4.84037C13.1145 5.27873 12.5199 5.52501 11.9 5.52501C11.28 5.52501 10.6855 5.27873 10.2471 4.84037C9.80875 4.402 9.56248 3.80745 9.56248 3.18751C9.56248 2.56756 9.80875 1.97301 10.2471 1.53464C10.6855 1.09628 11.28 0.850006 11.9 0.850006ZM11.9 1.70001C11.5055 1.70001 11.1271 1.85672 10.8482 2.13568C10.5692 2.41465 10.4125 2.793 10.4125 3.18751C10.4125 3.58202 10.5692 3.96037 10.8482 4.23933C11.1271 4.51829 11.5055 4.67501 11.9 4.67501C12.2945 4.67501 12.6728 4.51829 12.9518 4.23933C13.2308 3.96037 13.3875 3.58202 13.3875 3.18751C13.3875 2.793 13.2308 2.41465 12.9518 2.13568C12.6728 1.85672 12.2945 1.70001 11.9 1.70001Z" fill="#474545"/>
</g>
<defs>
<clipPath id="clip0_14_152">
<rect width="17" height="17" fill="white"/>
</clipPath>
</defs>
</svg>
