<svg width="31" height="31" viewBox="0 0 31 31" fill="none" xmlns="http://www.w3.org/2000/svg">
<path d="M0 5C0 2.23858 2.23858 0 5 0H26C28.7614 0 31 2.23858 31 5V26C31 28.7614 28.7614 31 26 31H5C2.23858 31 0 28.7614 0 26V5Z" fill="#F22DC7" fill-opacity="0.3"/>
<path d="M8.11902 11.0714C8.11902 11.0714 9.22616 9.59524 11.8095 9.59524C14.3928 9.59524 15.5 11.0714 15.5 11.0714V21.4048C15.5 21.4048 14.3928 20.6667 11.8095 20.6667C9.22616 20.6667 8.11902 21.4048 8.11902 21.4048V11.0714ZM15.5 11.0714C15.5 11.0714 16.6071 9.59524 19.1904 9.59524C21.7738 9.59524 22.8809 11.0714 22.8809 11.0714V21.4048C22.8809 21.4048 21.7738 20.6667 19.1904 20.6667C16.6071 20.6667 15.5 21.4048 15.5 21.4048V11.0714Z" stroke="#F22DC7" stroke-width="2" stroke-linecap="round" stroke-linejoin="round"/>
</svg>
