<svg width="19" height="19" viewBox="0 0 19 19" fill="none" xmlns="http://www.w3.org/2000/svg">
<path d="M9.91665 18C14.434 18 18 14.1398 18 9.5C18 4.8602 14.434 1 9.91665 1C5.39926 1 1.83331 4.8602 1.83331 9.5C1.83331 14.1398 5.39926 18 9.91665 18Z" fill="white" stroke="#6CAD55" stroke-width="2"/>
<mask id="path-2-outside-1_15_9" maskUnits="userSpaceOnUse" x="0" y="0" width="12" height="19" fill="black">
<rect fill="white" width="12" height="19"/>
<path d="M9.08333 2C8.15314 2 7.23205 2.19399 6.37266 2.5709C5.51327 2.94781 4.73241 3.50026 4.07466 4.1967C3.41691 4.89314 2.89516 5.71993 2.53919 6.62987C2.18322 7.53982 2 8.51509 2 9.5C2 10.4849 2.18322 11.4602 2.53919 12.3701C2.89516 13.2801 3.41691 14.1069 4.07466 14.8033C4.73241 15.4997 5.51327 16.0522 6.37266 16.4291C7.23205 16.806 8.15314 17 9.08333 17L9.08333 9.5V2Z"/>
</mask>
<path d="M9.08333 2C8.15314 2 7.23205 2.19399 6.37266 2.5709C5.51327 2.94781 4.73241 3.50026 4.07466 4.1967C3.41691 4.89314 2.89516 5.71993 2.53919 6.62987C2.18322 7.53982 2 8.51509 2 9.5C2 10.4849 2.18322 11.4602 2.53919 12.3701C2.89516 13.2801 3.41691 14.1069 4.07466 14.8033C4.73241 15.4997 5.51327 16.0522 6.37266 16.4291C7.23205 16.806 8.15314 17 9.08333 17L9.08333 9.5V2Z" fill="#6CAD55"/>
<path d="M9.08333 2C8.15314 2 7.23205 2.19399 6.37266 2.5709C5.51327 2.94781 4.73241 3.50026 4.07466 4.1967C3.41691 4.89314 2.89516 5.71993 2.53919 6.62987C2.18322 7.53982 2 8.51509 2 9.5C2 10.4849 2.18322 11.4602 2.53919 12.3701C2.89516 13.2801 3.41691 14.1069 4.07466 14.8033C4.73241 15.4997 5.51327 16.0522 6.37266 16.4291C7.23205 16.806 8.15314 17 9.08333 17L9.08333 9.5V2Z" stroke="#6CAD55" stroke-width="4" mask="url(#path-2-outside-1_15_9)"/>
</svg>
