<svg width="25" height="21" viewBox="0 0 25 21" fill="none" xmlns="http://www.w3.org/2000/svg">
<path d="M13.314 19.8126C18.9794 19.8126 23.8844 15.9309 23.8844 10.7898C23.8844 5.64859 18.9794 1.76688 13.314 1.76688C7.64864 1.76688 2.74365 5.64859 2.74365 10.7898C2.74365 15.9309 7.64864 19.8126 13.314 19.8126Z" fill="white" stroke="#A095C9" stroke-width="2"/>
<mask id="path-2-outside-1_312_196" maskUnits="userSpaceOnUse" x="0.61792" y="-0.18737" width="14" height="21" fill="black">
<rect fill="white" x="0.61792" y="-0.18737" width="14" height="21"/>
<path d="M12.1883 2.76688C10.9315 2.76688 9.687 2.9744 8.52587 3.37758C7.36474 3.78077 6.30971 4.37173 5.42102 5.11672C4.53233 5.86172 3.82738 6.74615 3.34642 7.71953C2.86546 8.69291 2.61792 9.73618 2.61792 10.7898C2.61792 11.8433 2.86546 12.8866 3.34642 13.86C3.82738 14.8334 4.53233 15.7178 5.42102 16.4628C6.30971 17.2078 7.36474 17.7987 8.52587 18.2019C9.687 18.6051 10.9315 18.8126 12.1883 18.8126L12.1883 10.7898L12.1883 2.76688Z"/>
</mask>
<path d="M12.1883 2.76688C10.9315 2.76688 9.687 2.9744 8.52587 3.37758C7.36474 3.78077 6.30971 4.37173 5.42102 5.11672C4.53233 5.86172 3.82738 6.74615 3.34642 7.71953C2.86546 8.69291 2.61792 9.73618 2.61792 10.7898C2.61792 11.8433 2.86546 12.8866 3.34642 13.86C3.82738 14.8334 4.53233 15.7178 5.42102 16.4628C6.30971 17.2078 7.36474 17.7987 8.52587 18.2019C9.687 18.6051 10.9315 18.8126 12.1883 18.8126L12.1883 10.7898L12.1883 2.76688Z" fill="#A095C9"/>
<path d="M12.1883 2.76688C10.9315 2.76688 9.687 2.9744 8.52587 3.37758C7.36474 3.78077 6.30971 4.37173 5.42102 5.11672C4.53233 5.86172 3.82738 6.74615 3.34642 7.71953C2.86546 8.69291 2.61792 9.73618 2.61792 10.7898C2.61792 11.8433 2.86546 12.8866 3.34642 13.86C3.82738 14.8334 4.53233 15.7178 5.42102 16.4628C6.30971 17.2078 7.36474 17.7987 8.52587 18.2019C9.687 18.6051 10.9315 18.8126 12.1883 18.8126L12.1883 10.7898L12.1883 2.76688Z" stroke="#A095C9" stroke-width="4" mask="url(#path-2-outside-1_312_196)"/>
</svg>
