<svg width="22" height="21" viewBox="0 0 22 21" fill="none" xmlns="http://www.w3.org/2000/svg">
<path d="M11.3336 19.8606C16.4287 19.8606 20.6132 15.8504 20.6132 10.8377C20.6132 5.82506 16.4287 1.81484 11.3336 1.81484C6.23851 1.81484 2.05396 5.82506 2.05396 10.8377C2.05396 15.8504 6.23851 19.8606 11.3336 19.8606Z" fill="white" stroke="#6CAD55" stroke-width="2"/>
<mask id="path-2-outside-1_312_86" maskUnits="userSpaceOnUse" x="0.0800781" y="-0.1394" width="13" height="21" fill="black">
<rect fill="white" x="0.0800781" y="-0.1394" width="13" height="21"/>
<path d="M10.3597 2.81485C9.27241 2.81485 8.19576 3.02237 7.19123 3.42555C6.1867 3.82874 5.27396 4.4197 4.50513 5.16469C3.73629 5.90969 3.12642 6.79412 2.71033 7.7675C2.29424 8.74088 2.08008 9.78415 2.08008 10.8377C2.08008 11.8913 2.29424 12.9346 2.71033 13.9079C3.12642 14.8813 3.73629 15.7658 4.50513 16.5108C5.27396 17.2557 6.1867 17.8467 7.19123 18.2499C8.19576 18.6531 9.27241 18.8606 10.3597 18.8606L10.3597 10.8377L10.3597 2.81485Z"/>
</mask>
<path d="M10.3597 2.81485C9.27241 2.81485 8.19576 3.02237 7.19123 3.42555C6.1867 3.82874 5.27396 4.4197 4.50513 5.16469C3.73629 5.90969 3.12642 6.79412 2.71033 7.7675C2.29424 8.74088 2.08008 9.78415 2.08008 10.8377C2.08008 11.8913 2.29424 12.9346 2.71033 13.9079C3.12642 14.8813 3.73629 15.7658 4.50513 16.5108C5.27396 17.2557 6.1867 17.8467 7.19123 18.2499C8.19576 18.6531 9.27241 18.8606 10.3597 18.8606L10.3597 10.8377L10.3597 2.81485Z" fill="#6CAD55"/>
<path d="M10.3597 2.81485C9.27241 2.81485 8.19576 3.02237 7.19123 3.42555C6.1867 3.82874 5.27396 4.4197 4.50513 5.16469C3.73629 5.90969 3.12642 6.79412 2.71033 7.7675C2.29424 8.74088 2.08008 9.78415 2.08008 10.8377C2.08008 11.8913 2.29424 12.9346 2.71033 13.9079C3.12642 14.8813 3.73629 15.7658 4.50513 16.5108C5.27396 17.2557 6.1867 17.8467 7.19123 18.2499C8.19576 18.6531 9.27241 18.8606 10.3597 18.8606L10.3597 10.8377L10.3597 2.81485Z" stroke="#6CAD55" stroke-width="4" mask="url(#path-2-outside-1_312_86)"/>
</svg>
