<svg width="31" height="31" viewBox="0 0 31 31" fill="none" xmlns="http://www.w3.org/2000/svg">
<rect width="31" height="31" rx="5" fill="#695C9A" fill-opacity="0.3"/>
<path d="M21.2234 12.147L17.3493 8.2729C17.2386 8.16222 17.128 8.10687 16.9619 8.10687H11.4276C10.8188 8.10687 10.3207 8.60497 10.3207 9.21375V22.4962C10.3207 23.105 10.8188 23.6031 11.4276 23.6031H20.2826C20.8913 23.6031 21.3894 23.105 21.3894 22.4962V12.5344C21.3894 12.3683 21.3341 12.2577 21.2234 12.147ZM16.9619 9.43512L20.0612 12.5344H16.9619V9.43512ZM20.2826 22.4962H11.4276V9.21375H15.8551V12.5344C15.8551 13.1432 16.3531 13.6412 16.9619 13.6412H20.2826V22.4962Z" fill="#3E10F4"/>
<path d="M12.5344 19.1756H19.1757V20.2825H12.5344V19.1756ZM12.5344 15.855H19.1757V16.9619H12.5344V15.855Z" fill="#3E10F4"/>
</svg>
