<svg width="24" height="24" viewBox="0 0 24 24" fill="none" xmlns="http://www.w3.org/2000/svg">
<path d="M18.6078 13.8672C18.3625 13.8673 18.1196 13.819 17.893 13.7252C17.6663 13.6315 17.4604 13.4939 17.2869 13.3205C17.1134 13.1472 16.9757 12.9413 16.8818 12.7147C16.7878 12.4881 16.7395 12.2453 16.7394 12C16.7393 11.7547 16.7875 11.5118 16.8813 11.2852C16.9751 11.0585 17.1126 10.8526 17.286 10.6791C17.4594 10.5056 17.6653 10.3679 17.8918 10.274C18.1184 10.1801 18.3613 10.1317 18.6066 10.1316C19.102 10.1314 19.5771 10.3281 19.9275 10.6782C20.2779 11.0284 20.4748 11.5034 20.475 11.9988C20.4751 12.4942 20.2785 12.9693 19.9283 13.3197C19.5782 13.6701 19.1032 13.867 18.6078 13.8672Z" fill="#757575"/>
<path d="M12.1974 13.8672C13.2286 13.8672 14.0646 13.0312 14.0646 12C14.0646 10.9688 13.2286 10.1328 12.1974 10.1328C11.1662 10.1328 10.3302 10.9688 10.3302 12C10.3302 13.0312 11.1662 13.8672 12.1974 13.8672Z" fill="#757575"/>
<path d="M5.78578 13.8672C6.817 13.8672 7.65298 13.0312 7.65298 12C7.65298 10.9688 6.817 10.1328 5.78578 10.1328C4.75455 10.1328 3.91858 10.9688 3.91858 12C3.91858 13.0312 4.75455 13.8672 5.78578 13.8672Z" fill="#757575"/>
</svg>
